# xmcd CD database file
#
# Track frame offsets:
#	150
#	11497
#	36423
#	65896
#	85282
#	97275
#	127067
#	150064
#	157831
#	184359
#	215630
#	229823
#	265395
#	277069
#	311111
#
# Disc length: 4237 seconds
#
# Revision: 0
# Processed by: cddbd v1.5PL3 Copyright (c) Steve Scherf et al.
# Submitted via: CDex 1.51
#
DISCID=df108b0f
DTITLE=Sebastian Peycere - Eu Que Sentido
DYEAR=1900
DGENRE=Jazz
TTITLE0=Riela
TTITLE1=Estofado
TTITLE2=Cissy Strat
TTITLE3=Nostalgia in Time Square
TTITLE4=Impaciencia
TTITLE5=En Que Sentido ?
TTITLE6=Desprolijo
TTITLE7=Vamp del Guason
TTITLE8=Noche Perpetua
TTITLE9=Imagen del Maestro
TTITLE10=Riela en el Rio Seco
TTITLE11=La Mafia
TTITLE12=Requecho de la seca
TTITLE13=El Dia que me Quieras
TTITLE14=Fasolino
EXTD=
EXTT0=
EXTT1=
EXTT2=
EXTT3=
EXTT4=
EXTT5=
EXTT6=
EXTT7=
EXTT8=
EXTT9=
EXTT10=
EXTT11=
EXTT12=
EXTT13=
EXTT14=
PLAYORDER=
